TITLE ""
FILE "P1Q_t_0510-0519.mp3" MP3
  TRACK 01 AUDIO
    TITLE "P1Q_t_0510-0519_01"
    INDEX 01 00:00:00
  TRACK 02 AUDIO
    TITLE "P1Q_t_0510-0519_02"
    INDEX 01 00:00:14
  TRACK 03 AUDIO
    TITLE "P1Q_t_0510-0519_03"
    INDEX 01 00:01:23
  TRACK 04 AUDIO
    TITLE "P1Q_t_0510-0519_04"
    INDEX 01 00:01:47
  TRACK 05 AUDIO
    TITLE "P1Q_t_0510-0519_05"
    INDEX 01 00:05:10
  TRACK 06 AUDIO
    TITLE "P1Q_t_0510-0519_06"
    INDEX 01 00:05:27
  TRACK 07 AUDIO
    TITLE "P1Q_t_0510-0519_07"
    INDEX 01 00:09:15
  TRACK 08 AUDIO
    TITLE "P1Q_t_0510-0519_08"
    INDEX 01 00:09:62
  TRACK 09 AUDIO
    TITLE "P1Q_t_0510-0519_09"
    INDEX 01 00:11:04
  TRACK 10 AUDIO
    TITLE "P1Q_t_0510-0519_10"
    INDEX 01 00:11:26
  TRACK 11 AUDIO
    TITLE "P1Q_t_0510-0519_11"
    INDEX 01 00:15:22
  TRACK 12 AUDIO
    TITLE "P1Q_t_0510-0519_12"
    INDEX 01 00:15:41
  TRACK 13 AUDIO
    TITLE "P1Q_t_0510-0519_13"
    INDEX 01 00:20:52
  TRACK 14 AUDIO
    TITLE "P1Q_t_0510-0519_14"
    INDEX 01 00:21:22
  TRACK 15 AUDIO
    TITLE "P1Q_t_0510-0519_15"
    INDEX 01 00:22:41
  TRACK 16 AUDIO
    TITLE "P1Q_t_0510-0519_16"
    INDEX 01 00:22:63
  TRACK 17 AUDIO
    TITLE "P1Q_t_0510-0519_17"
    INDEX 01 00:26:08
  TRACK 18 AUDIO
    TITLE "P1Q_t_0510-0519_18"
    INDEX 01 00:26:27
  TRACK 19 AUDIO
    TITLE "P1Q_t_0510-0519_19"
    INDEX 01 00:30:37
  TRACK 20 AUDIO
    TITLE "P1Q_t_0510-0519_20"
    INDEX 01 00:31:07
  TRACK 21 AUDIO
    TITLE "P1Q_t_0510-0519_21"
    INDEX 01 00:32:34
  TRACK 22 AUDIO
    TITLE "P1Q_t_0510-0519_22"
    INDEX 01 00:32:59
  TRACK 23 AUDIO
    TITLE "P1Q_t_0510-0519_23"
    INDEX 01 00:35:60
  TRACK 24 AUDIO
    TITLE "P1Q_t_0510-0519_24"
    INDEX 01 00:36:06
  TRACK 25 AUDIO
    TITLE "P1Q_t_0510-0519_25"
    INDEX 01 00:40:29
  TRACK 26 AUDIO
    TITLE "P1Q_t_0510-0519_26"
    INDEX 01 00:41:09
  TRACK 27 AUDIO
    TITLE "P1Q_t_0510-0519_27"
    INDEX 01 00:42:19
  TRACK 28 AUDIO
    TITLE "P1Q_t_0510-0519_28"
    INDEX 01 00:42:38
  TRACK 29 AUDIO
    TITLE "P1Q_t_0510-0519_29"
    INDEX 01 00:44:04
  TRACK 30 AUDIO
    TITLE "P1Q_t_0510-0519_30"
    INDEX 01 00:44:23
  TRACK 31 AUDIO
    TITLE "P1Q_t_0510-0519_31"
    INDEX 01 00:47:75
  TRACK 32 AUDIO
    TITLE "P1Q_t_0510-0519_32"
    INDEX 01 00:48:45
  TRACK 33 AUDIO
    TITLE "P1Q_t_0510-0519_33"
    INDEX 01 00:49:62
  TRACK 34 AUDIO
    TITLE "P1Q_t_0510-0519_34"
    INDEX 01 00:50:08
  TRACK 35 AUDIO
    TITLE "P1Q_t_0510-0519_35"
    INDEX 01 00:53:54
  TRACK 36 AUDIO
    TITLE "P1Q_t_0510-0519_36"
    INDEX 01 00:53:73
  TRACK 37 AUDIO
    TITLE "P1Q_t_0510-0519_37"
    INDEX 01 00:58:68
  TRACK 38 AUDIO
    TITLE "P1Q_t_0510-0519_38"
    INDEX 01 00:59:40
  TRACK 39 AUDIO
    TITLE "P1Q_t_0510-0519_39"
    INDEX 01 01:00:50
  TRACK 40 AUDIO
    TITLE "P1Q_t_0510-0519_40"
    INDEX 01 01:00:73
  TRACK 41 AUDIO
    TITLE "P1Q_t_0510-0519_41"
    INDEX 01 01:03:68
  TRACK 42 AUDIO
    TITLE "P1Q_t_0510-0519_42"
    INDEX 01 01:04:12
  TRACK 43 AUDIO
    TITLE "P1Q_t_0510-0519_43"
    INDEX 01 01:08:43
  TRACK 44 AUDIO
    TITLE "P1Q_t_0510-0519_44"
    INDEX 01 01:09:15
  TRACK 45 AUDIO
    TITLE "P1Q_t_0510-0519_45"
    INDEX 01 01:10:25
  TRACK 46 AUDIO
    TITLE "P1Q_t_0510-0519_46"
    INDEX 01 01:10:46
  TRACK 47 AUDIO
    TITLE "P1Q_t_0510-0519_47"
    INDEX 01 01:13:43
  TRACK 48 AUDIO
    TITLE "P1Q_t_0510-0519_48"
    INDEX 01 01:13:62
  TRACK 49 AUDIO
    TITLE "P1Q_t_0510-0519_49"
    INDEX 01 01:18:16
  TRACK 50 AUDIO
    TITLE "P1Q_t_0510-0519_50"
    INDEX 01 01:18:61
  TRACK 51 AUDIO
    TITLE "P1Q_t_0510-0519_51"
    INDEX 01 01:20:17
  TRACK 52 AUDIO
    TITLE "P1Q_t_0510-0519_52"
    INDEX 01 01:20:39
  TRACK 53 AUDIO
    TITLE "P1Q_t_0510-0519_53"
    INDEX 01 01:23:35
  TRACK 54 AUDIO
    TITLE "P1Q_t_0510-0519_54"
    INDEX 01 01:23:55
  TRACK 55 AUDIO
    TITLE "P1Q_t_0510-0519_55"
    INDEX 01 01:29:40
  TRACK 56 AUDIO
    TITLE "P1Q_t_0510-0519_56"
    INDEX 01 01:30:10
  TRACK 57 AUDIO
    TITLE "P1Q_t_0510-0519_57"
    INDEX 01 01:31:37
  TRACK 58 AUDIO
    TITLE "P1Q_t_0510-0519_58"
    INDEX 01 01:31:62
  TRACK 59 AUDIO
    TITLE "P1Q_t_0510-0519_59"
    INDEX 01 01:35:48
  TRACK 60 AUDIO
    TITLE "P1Q_t_0510-0519_60"
    INDEX 01 01:35:68
  TRACK 61 AUDIO
    TITLE "P1Q_t_0510-0519_61"
    INDEX 01 01:39:54
